<svg xmlns="http://www.w3.org/2000/svg" width="256" height="256"><path fill-opacity=".016" d="M0 128.004v128.004l128.25-.254 128.25-.254.254-127.75L257.008 0H0v128.004m.485.496c0 70.4.119 99.053.265 63.672.146-35.38.146-92.98 0-128C.604 29.153.485 58.1.485 128.5" fill="#fff" fill-rule="evenodd"/><path fill-opacity=".135" d="M112.5 45.638c-9.142 1.983-19.986 6.543-26.658 11.207L80.5 60.58l-.133 6.71c-.073 3.69.018 6.71.202 6.71.184 0 3.243-2.032 6.796-4.517 11.481-8.025 23.025-12.039 37.907-13.179 7.31-.561 8.087-.46 6.967.898-.693.841-3.299 1.809-5.79 2.15-7.885 1.081-8.736 1.968-8.138 8.489.285 3.112.3 4.646.034 3.409s-.85-2.25-1.297-2.25c-1.002 0-2.386 13.575-2.127 20.858.273 7.664-.621 10.684-3.556 12.021-2.184.996-3.613.669-10.301-2.35-4.271-1.928-10.716-4.617-14.323-5.975l-6.558-2.468-.118 12.572c-.069 7.311.311 13.09.908 13.809.704.849.678 2.237-.085 4.424-.794 2.279-.811 4.372-.058 7.338.58 2.283.787 4.582.461 5.109-.325.527-.698 8.779-.828 18.339l-.236 17.381 7.137 3.888c9.911 5.401 15.547 9.852 16.307 12.878.355 1.414 1.924 3.647 3.487 4.962 3.413 2.873 3.689 4.593.592 3.7-5.187-1.494-17.625-7.907-22.555-11.629l-5.305-4.005.207 7.1c.207 7.065.227 7.113 4.305 10.129 2.254 1.666 7.023 4.378 10.598 6.025 3.575 1.648 7.281 3.423 8.236 3.945.955.522 2.698.949 3.873.949 1.785 0 1.931.246.891 1.5-1.393 1.679.019 2.081 1.635.465.713-.713 3.34-.674 8.45.124 13.342 2.085 29.597-.141 42.145-5.773l5.77-2.589v-4.78c0-2.889-.495-4.98-1.25-5.285-.779-.314-.621-.534.418-.583.918-.043 2.35-.34 3.183-.66 1.775-.681 5.109 4.941 4.253 7.171-.298.776-.105 1.41.427 1.41.533 0 .969-.42.969-.933 0-.513.9-1.218 2-1.567 2.598-.825 2.615-2.474.018-1.794-1.487.388-2.273-.197-3.145-2.344-1.311-3.225-2.803-12.421-1.937-11.931.31.175 1.464-.043 2.564-.486 1.746-.702 1.651-.813-.75-.875-3.616-.092-3.47-1.181.773-5.764 3.438-3.714 5.314-7.803 4.125-8.991-.326-.326-1.064.648-1.64 2.164-2.216 5.828-4.817 7.972-9.833 8.107-2.571.07-3.681-.063-2.465-.294 2.184-.416 2.209-.633 2.215-18.856.003-10.14-.277-18.436-.622-18.436s-4.787 3.126-9.87 6.947c-6.941 5.217-9.496 7.771-10.258 10.25-.558 1.817-2.455 12.377-4.215 23.468-3.554 22.399-2.967 21.308-11.46 21.308-7.558 0-8.5-.651-8.5-5.867 0-5.456 2.214-9.337 4.777-8.377 1.464.548 1.53.408.44-.934-.705-.868-2.186-1.815-3.291-2.104-1.532-.401-1.885-.13-1.49 1.142.285.917.142 2.266-.318 2.998-1.15 1.831-2.391-4.521-1.273-6.518.726-1.297 1.056-1.269 2.542.217 3.415 3.415 2.582.61-1.265-4.256-3.502-4.431-4.112-6.046-5.426-14.364-1.367-8.662-1.729-9.563-4.775-11.891-17.016-13.007-18.188-14.225-20.035-20.832-.97-3.472-1.449-6.172-1.063-6 .385.172 7.529 3.225 15.875 6.784l15.174 6.472 1.757 9.329c1.401 7.443 1.534 10.167.653 13.468-1.063 3.982-.981 4.261 2.207 7.449 1.821 1.821 3.693 3.293 4.161 3.27.467-.022 2.366-1.337 4.219-2.921 3.363-2.877 3.366-2.889 2.196-7.767-.954-3.976-.883-6.271.381-12.328.854-4.094 1.553-7.728 1.553-8.076.002-1.373 5.169-1.594 5.687-.243.29.757 1.02 1.376 1.621 1.376.731 0 .696-.397-.107-1.2-2.745-2.745-1.186-4.396 7.778-8.236C166.62 123.721 166 124.489 166 113.443c0-7.948-.251-9.443-1.583-9.443-.871 0-1.377-.562-1.125-1.25.252-.687.964-1.137 1.583-1 .619.138 1.125-.875 1.125-2.25s-.256-2.5-.57-2.5c-.313 0-3.923 1.396-8.023 3.103-7.958 3.313-10.407 2.995-10.407-1.35 0-1.71.457-1.912 3.122-1.379 2.595.519 2.927.389 1.964-.77-.636-.767-2.681-1.681-4.544-2.03l-3.386-.635-.348-7.72c-.192-4.245.021-8.624.474-9.73.93-2.278 5.988-5.489 8.644-5.489.97 0 2.579-.9 3.574-2 1.744-1.927.893-2.872-1.05-1.165-.522.459-3.126 1.636-5.785 2.615-5.525 2.034-7.678 1.145-5.535-2.287 1.105-1.769.977-2.699-.869-6.334-1.19-2.343-2.01-4.413-1.823-4.601.647-.646 12.74 2.876 18.267 5.32 3.049 1.349 5.66 2.452 5.802 2.452.142 0 .258-2.749.258-6.108v-6.109l-4.633-2.067c-2.547-1.137-8.128-3.061-12.402-4.276-9.546-2.714-25.767-3.073-36.23-.802m22.662 11.911c-2.527 1.322-2.163 1.816 2.088 2.832 2.001.478 2.75.277 2.75-.74 0-2.429-2.296-3.422-4.838-2.092M20 59.017c0 .541-.643.983-1.429.983-.785 0-2.122.694-2.969 1.541-1.351 1.35-1.886 1.365-4.322.121-6.327-3.234-12.317-2.807-10.941.779.347.903 1.958 2.201 3.58 2.883 1.623.682 3.913 2.464 5.088 3.958C10.183 70.777 11.787 72 12.573 72 13.472 72 14 73.044 14 74.826c0 2.913 3.263 6.832 6 7.206 3.961.542 7-.124 7-1.532 0-.825.765-1.5 1.7-1.5 1.322 0 1.433.267.5 1.2-.66.66-1.2 2.716-1.2 4.569 0 3.317.18 3.454 11.56 8.823 9.28 4.377 11.456 5.793 11.028 7.18-4.563 14.81-5.434 33.359-2.121 45.228.997 3.575 1.913 7.175 2.034 8 .215 1.458.944 3.701 2.033 6.25.293.688 1.636 3.05 2.983 5.25 2.487 4.06 3.354 4.172 1.428.184-1.019-2.11-1.002-2.118.5-.243.855 1.068 1.557 2.868 1.559 4 .002 1.133.902 3.532 2 5.333 1.098 1.801 1.996 4.388 1.996 5.75 0 4.597 1.746 2.518 1.84-2.191.119-5.943 1.143-6.921 4.489-4.289C70.798 175.2 72 175.676 72 175.103c0-.574-1.35-2.041-3-3.261-2.634-1.948-3.004-2.835-3.035-7.28-.02-2.784-.619-6.114-1.332-7.399-1.109-1.999-1.013-2.908.66-6.291 1.077-2.176 1.678-4.234 1.337-4.576-.342-.341-1.12.812-1.731 2.563-.61 1.751-1.952 3.634-2.982 4.185-1.457.78-1.753.692-1.335-.397.295-.77-.137-4.043-.961-7.273-1.903-7.467-3.064-19.473-2.211-22.871.511-2.035 1.092-2.478 2.614-1.995 1.9.603 1.907.534.228-2.392-1.543-2.689-1.576-3.368-.303-6.314.785-1.816 1.6-7.278 1.812-12.138.334-7.648.14-9.027-1.438-10.25-1.732-1.344-1.736-1.482-.073-2.774 2.059-1.601 2.453-6.847.456-6.081C58.688 81.334 40 72.23 40 70.473c0-1.129-.659-1.346-2.607-.857-2.925.734-4.687-1.023-3.82-3.81.585-1.882-3.808-5.397-5.465-4.373-.538.333-2.583-.296-4.543-1.397C21.604 58.935 20 58.476 20 59.017m223.5-.298c-1.1.268-2.732 1.135-3.626 1.927-1.42 1.257-1.702 1.244-2.219-.103-.817-2.128-6.898-1.996-9.502.207-2.413 2.042-3.995 7.25-2.202 7.25.642 0 .864.49.493 1.09-.405.656-2.019.837-4.059.454-2.538-.476-3.385-.284-3.385.767 0 .801-4.37 3.43-10.197 6.134l-10.198 4.733-1.961-2.839c-1.079-1.561-5.152-5.972-9.053-9.8l-7.091-6.962-.295 7.269c-.295 7.261-.29 7.275 3.986 12.383 2.355 2.812 3.838 5.263 3.295 5.446-.542.183-2.449 1.225-4.236 2.314-3.46 2.11-4.215 4.427-1.75 5.373.825.316 1.5 1.039 1.5 1.607 0 .567-.675 1.031-1.5 1.031-1.237 0-1.496 1.795-1.475 10.25l.024 10.25 3.517 1.75c3.757 1.87 8.819 2.366 8.267.81-.183-.517-1.905-1.995-3.826-3.285s-3.624-3.026-3.784-3.857c-.329-1.708 6.435-5.918 9.508-5.918 4.46 0 7.794 8.31 4.523 11.27-2.862 2.59-13.437 6.928-15.791 6.478-1.309-.25-2.13.105-2.13.923 0 2.296 6.327 1.503 13.327-1.671 3.639-1.65 6.847-3 7.129-3 .282 0 .231 4.162-.113 9.25-1.111 16.419-5.894 29.326-15.639 42.201-4.84 6.395-5.037 6.907-5.037 13.102 0 3.594.439 6.447.991 6.447 2.002 0 13.865-12.707 18.371-19.676 12.636-19.546 16.666-44.342 10.701-65.851-1.059-3.819-1.844-7.006-1.744-7.081.1-.075 5.468-2.638 11.931-5.695 6.463-3.057 11.75-6.155 11.75-6.884 0-.729-.41-2.756-.911-4.504-.788-2.746-.686-3.098.75-2.588.913.324 2.237 1.036 2.941 1.581 1.606 1.245 6.22-.679 6.22-2.594 0-.734 1.564-1.948 3.476-2.698 2.286-.897 3.17-1.732 2.582-2.44-1.169-1.408.582-3.692 4.661-6.08 5.757-3.371 5.164-8.017-.74-5.788-1.662.627-2.729.703-2.4.17.61-.988-1.332-3.963-2.451-3.756-.346.064-1.528.335-2.628.603M141.015 64.25c-.008 1.513.435 2.75.985 2.75 1.264 0 1.264-2.043 0-4-.755-1.169-.973-.893-.985 1.25M10 66c.825.533 1.95.969 2.5.969s.325-.436-.5-.969c-.825-.533-1.95-.969-2.5-.969s-.325.436.5.969m130.158 5c0 1.375.227 1.938.504 1.25.278-.687.278-1.812 0-2.5-.277-.687-.504-.125-.504 1.25M29.5 74c.34.55 1.041 1 1.559 1s.941-.45.941-1-.702-1-1.559-1-1.281.45-.941 1m199 0c-.34.55-.141 1 .441 1S230 74.55 230 74s-.198-1-.441-1-.719.45-1.059 1m-109.342 2c0 1.375.227 1.938.504 1.25.278-.687.278-1.812 0-2.5-.277-.687-.504-.125-.504 1.25m20 0c0 1.375.227 1.938.504 1.25.278-.687.278-1.812 0-2.5-.277-.687-.504-.125-.504 1.25M198 89.059c0 .582.45.781 1 .441s1-.816 1-1.059-.45-.441-1-.441-1 .477-1 1.059M192 91c0 .55.45 1 1 1s1-.45 1-1-.45-1-1-1-1 .45-1 1m-6 1.941c0 .518.45 1.219 1 1.559.55.34 1-.084 1-.941S187.55 92 187 92s-1 .423-1 .941M82.597 96.844c-.346.56-.142 1.319.453 1.687 1.538.95 2.53-.351 1.246-1.635-.718-.718-1.277-.735-1.699-.052M144 98.059c0 1.132.45 1.781 1 1.441.55-.34 1-1.266 1-2.059 0-.793-.45-1.441-1-1.441s-1 .927-1 2.059M89 100c0 .55.45 1 1 1s1-.45 1-1-.45-1-1-1-1 .45-1 1m5.51 3.016c.346.559 1.047.758 1.559.441 1.387-.857 1.129-1.457-.628-1.457-.857 0-1.276.457-.931 1.016M100.5 105c-.34.55-.141 1 .441 1s1.059-.45 1.059-1-.198-1-.441-1-.719.45-1.059 1m56.65-.05c.43 1.289 1.801 1.521 1.925.325.041-.399-.465-.905-1.125-1.125-.66-.22-1.02.14-.8.8M140 135c-.825.533-1.05.969-.5.969s1.675-.436 2.5-.969c.825-.533 1.05-.969.5-.969s-1.675.436-2.5.969m-81.789 21.538c-1.066 1.208-1.022 1.462.25 1.462.846 0 1.539-.675 1.539-1.5 0-1.824-.15-1.82-1.789.038m3.159 1.24c-.691 1.108-.768 2.618-.209 4.129.485 1.311.617 3.218.293 4.238-.324 1.02-.219 1.855.234 1.855.452 0 1.346-1.672 1.986-3.716.89-2.845.884-4.249-.025-5.984-1.096-2.093-1.272-2.133-2.279-.522m.88 2.829c0 1.667.282 2.15.782 1.34.431-.696.551-1.869.268-2.606-.763-1.99-1.05-1.644-1.05 1.266m-5.763.158c-.625.453-.146 1.584 1.25 2.949 1.646 1.61 2.263 1.815 2.263.75 0-.805-.436-1.464-.969-1.464-.532 0-.709-.675-.393-1.5.611-1.591-.465-1.958-2.151-.735m123.592.818c.048 1.165.285 1.402.604.605.289-.722.253-1.585-.079-1.917-.332-.332-.568.258-.525 1.312M61.43 171.62c1.038 4.201 2.143 4.831 2.104 1.198-.019-1.776-.641-3.352-1.425-3.614-1.074-.359-1.229.192-.679 2.416m56.57 3.821c0 .857.45 1.559 1 1.559s1-.423 1-.941-.45-1.219-1-1.559c-.55-.34-1 .084-1 .941M166.5 177c.34.55 1.041 1 1.559 1s.941-.45.941-1-.702-1-1.559-1-1.281.45-.941 1m-7.365 5.186c-2.29 2.815-4.045 5.22-3.899 5.343.145.124 3.301.541 7.014.927l6.75.703-.063-3.829c-.058-3.466-.155-3.602-1.022-1.435-.527 1.318-1.186 2.167-1.464 1.889-.279-.279-.069-1.659.467-3.068.962-2.531.593-3.267-2.518-5.027-.606-.342-2.975 1.681-5.265 4.497m-50.385 8.921c1.787 1.918 3.25 4.029 3.25 4.691 0 .661.9 1.202 2 1.202s2-.183 2-.407c0-.224-2.362-2.335-5.25-4.691-4.772-3.894-4.954-3.966-2-.795m38.25 1.841c-4.445 3.982-5.021 4.824-3 4.394 9.205-1.96 19.621-6.332 17.815-7.478-2.39-1.515-5.485-.899-8.22 1.636-2.753 2.551-4.595 3.199-4.595 1.617 0-.486.9-1.119 2-1.407 1.1-.287 2-1.24 2-2.116 0-.877-.113-1.589-.25-1.583-.137.006-2.725 2.228-5.75 4.937" fill="#fff" fill-rule="evenodd"/><path fill-opacity=".548" d="M116.36 45.45c-3.927.727-8.764 1.858-10.75 2.514-3.556 1.173-3.61 1.272-3.61 6.614 0 2.982.196 5.422.437 5.422.24 0 4.177-.897 8.75-1.993 8.66-2.076 26.277-2.8 22.313-.916l-2 .95 2-.399c1.1-.219 2.638-.566 3.418-.77.78-.205 1.966.678 2.634 1.962.669 1.284 1.718 2.836 2.332 3.45 1.617 1.617 1.368 4.405-.455 5.105-1.23.472-1.501.014-1.25-2.108.245-2.065-.275-3.014-2.179-3.981-4.362-2.217-16.302-1.518-19.735 1.154-.13.101.432 3.977 1.248 8.615.817 4.637 1.456 9.331 1.422 10.431-.059 1.917-.097 1.912-.917-.118-.471-1.165-1.178-4.264-1.571-6.886-.442-2.947-.996-4.239-1.452-3.382-.721 1.356-1.962 17.319-1.984 25.515-.01 3.638-.367 4.276-3.004 5.368-2.84 1.177-4.427 1.091-8.118-.437-1.426-.591-1.631.805-1.791 12.239l-.182 12.905 8.792 3.841c4.836 2.113 9.281 4.198 9.879 4.635 1.695 1.238 3.785 17 3.066 23.119-.625 5.314-.549 5.543 2.631 7.968l3.274 2.497 2.971-2.37c2.906-2.318 2.972-2.573 2.999-11.632.03-10.222 1.872-17.722 4.38-17.832 1.171-.052 1.063-.289-.408-.895-1.903-.785-1.879-.873.5-1.813 1.375-.543 2.838-.788 3.25-.546.412.243.757-.597.765-1.867.011-1.657.256-1.93.866-.967.622.982.982.654 1.34-1.22.323-1.687.113-2.351-.615-1.945-.609.34-.054-.404 1.233-1.652l2.339-2.268-2.607-1.71-2.606-1.71 2.506-1.142c1.378-.628 3.088-.918 3.801-.644 1.618.621 1.582-4.097-.044-5.723-.822-.822-.969-.555-.56 1.01.429 1.643-.053 2.358-2.121 3.144-3.121 1.187-4.552 1.309-2.881.245.642-.408 1.273-3.438 1.404-6.734.13-3.296.64-6.515 1.132-7.154.542-.703.481-1.417-.153-1.809-.577-.356-1.049-.096-1.049.578 0 2.194-1.155.137-1.982-3.529-.834-3.698.192-4.813 1.794-1.951.625 1.117 1.131 1.273 1.61.498.509-.823 1.252-.836 2.724-.048 1.114.596 2.274.835 2.578.531.614-.614-4.103-2.609-6.167-2.609-1.936 0-3.562-2.369-3.501-5.101.296-13.337.426-14.06 2.882-16.05 1.341-1.086 3.693-2.225 5.228-2.532 1.534-.307 3.34-1.291 4.013-2.188 1.03-1.369 1.001-1.43-.177-.379-.771.688-2.41 1.25-3.643 1.25-1.233 0-2.519.45-2.859 1-.951 1.538-4.492 1.185-5.143-.513-.32-.832-.073-2.125.548-2.873 1.281-1.543.596-4.017-2.075-7.499-2.542-3.313-2.294-4.158 1.026-3.494 2.1.42 3.025.132 3.494-1.09.512-1.335.195-1.541-1.606-1.049-1.663.455-1.856.366-.744-.34 1.924-1.224 7.77-.772 9.257.715.629.629 1.789 1.143 2.578 1.143.836 0 .273-.914-1.349-2.189-1.789-1.408-4.191-2.192-6.727-2.196-2.97-.005-3.603-.267-2.565-1.061 1.921-1.468 1.062-4.554-1.267-4.554-1.06 0-1.93-.337-1.935-.75-.013-1.315-18.223-1.173-25.632.2M20.612 60.181c.465.752.182.954-.805.575-.837-.321-2.823.325-4.414 1.436-1.591 1.11-2.082 1.752-1.091 1.425 1.06-.349 1.55-.187 1.191.394-.882 1.427-2.471 1.193-6.993-1.028-3.508-1.724-2.799-1.802 2.5-.277.825.238.375-.258-1-1.101-2.563-1.573-8.14-2.132-9.336-.936-.821.821 2.227 4.337 3.741 4.316.602-.009.42-.452-.405-.985-2.594-1.676.601-1.121 6.712 1.166 3.184 1.191 5.267 2.34 4.631 2.552-.636.213-2.843-.318-4.903-1.179-2.061-.861-3.978-1.334-4.26-1.052-.282.282-.041.513.537.513.577 0 1.292.926 1.588 2.057.296 1.132 1.908 2.575 3.583 3.207 2.364.892 2.931 1.611 2.53 3.208-.842 3.352 4.368 7.653 8.649 7.14 1.888-.226 3.321-.906 3.183-1.512-.137-.605.403-1.1 1.2-1.1 2.44 0 3.616-3.224 1.706-4.676-1.496-1.139-1.45-1.263.472-1.292 3.153-.047 4.244-2.039 3.517-6.418-.458-2.757-1.289-4.124-2.863-4.706-1.337-.494-2.469-.414-2.849.201-.405.655-1.223.515-2.282-.392-2.288-1.958-5.464-3.033-4.539-1.536m209.544-.115c-1.29.517-2.58 1.838-2.867 2.937-.287 1.098-.92 1.997-1.406 1.997-.485 0-.883.675-.883 1.5s.477 1.5 1.059 1.5.754.493.382 1.096c-.373.603-1.999.902-3.613.665-1.987-.291-3.209.081-3.784 1.154-.468.872-4.928 3.582-9.913 6.024l-9.062 4.439.069 18.561c.038 10.208.364 20.586.724 23.061.36 2.475.302 8.55-.128 13.5-.431 4.95-.66 14.4-.509 21l.275 12 3.135-6c5.511-10.547 7.538-18.706 8.072-32.5.467-12.09.226-14.2-3.4-29.666-.45-1.917.812-2.794 10.948-7.612 6.301-2.995 11.754-5.928 12.119-6.517.364-.59.032-2.901-.738-5.136l-1.401-4.065 3.863 2.171c3.722 2.092 3.934 2.106 5.842.379 1.09-.986 1.886-2.281 1.77-2.878-.115-.597.24-1.128.79-1.18 2.926-.277 5.361-1.789 5.301-3.293-.037-.936.285-2.543.717-3.569.719-1.709.583-1.755-1.616-.538-1.321.731-2.74 1.233-3.152 1.116-.412-.116-.75.238-.75.788s-.477 1-1.059 1c-2.304 0 .527-2.232 5.775-4.553 6.378-2.821 6.655-2.879 5.671-1.197-.402.688.247.393 1.441-.655 1.195-1.048 2.172-2.285 2.172-2.75 0-1.197-5.204-1.022-7 .236-1.174.822-1.011.913.75.417 3.57-1.004 2.613.32-1.5 2.076-6.455 2.754-8.25 3.391-8.25 2.925 0-.248 1.688-1.342 3.75-2.431 2.063-1.089 3.326-1.999 2.809-2.024-.518-.024-.112-.651.903-1.392 4.171-3.051-2.839-5.178-7.138-2.166-1.876 1.314-2.187 1.314-2.691 0-.637-1.659-3.924-1.844-7.477-.42M18 63.883c0 .486.9 1.119 2 1.407 2.362.617 2.714-.802.418-1.683-2.099-.806-2.418-.769-2.418.276m112.38 3.569c-.653 1.702.284 3.548 1.801 3.548.685 0 .634-.518-.145-1.456-.664-.801-.918-1.926-.563-2.5.355-.574.379-1.044.055-1.044-.325 0-.842.653-1.148 1.452m9.258 2.576c-.259.81-.495 2.147-.525 2.972-.03.825-.536 4.164-1.125 7.42-1.768 9.787-.631 9.645 1.589-.198 1.138-5.047 1.723-9.736 1.3-10.421-.588-.951-.88-.898-1.239.227M228 74c0 .55.423 1 .941 1s1.219-.45 1.559-1c.34-.55-.084-1-.941-1S228 73.45 228 74M20.5 77c.34.55.816 1 1.059 1s.441-.45.441-1-.477-1-1.059-1-.781.45-.441 1m100.579 9.583c.048 1.165.285 1.402.604.605.289-.722.253-1.585-.079-1.917-.332-.332-.568.258-.525 1.312m23.95 37.378c-.809.512-1.211 1.191-.893 1.509.319.318 1.148-.108 1.844-.946 1.443-1.738 1.166-1.902-.951-.563m-1.929 12.744c.729 1.212 1.54 1.989 1.803 1.726.263-.263-.333-1.255-1.324-2.205-1.722-1.649-1.744-1.628-.479.479m-41.188 7.986c-.049.995-.207 5.859-.351 10.809-.203 6.939-.095 7.855.472 4 .681-4.628.725-4.46.601 2.249l-.134 7.248-5.5.032c-4.34.025-5.118.254-3.69 1.085.996.579 3.921 1.086 6.5 1.128 2.58.041 4.015.239 3.19.44-1.167.284-1.425 1.635-1.162 6.092.186 3.149.748 6.153 1.25 6.676.502.522.912 1.672.912 2.554 0 .882 1.557 3.113 3.461 4.958 1.904 1.845 3.242 3.71 2.974 4.143-.268.433-2.275.157-4.461-.614L102 194.089v5.795c0 5.266.237 5.903 2.593 6.976 1.426.65 4.238 1.405 6.25 1.677 2.011.273 6.3.87 9.53 1.329 5.952.844 15.245.522 21.627-.749 3.41-.68 3.508-.832 3.802-5.907.295-5.086.237-5.21-2.437-5.21h-2.739l2.596-2.75c2.979-3.154 3.161-4.885 2.814-26.75l-.223-14-3.364 19c-1.851 10.45-3.629 20.463-3.952 22.25l-.588 3.25h-16.733l-.641-3.795c-.69-4.084.367-7.964 2.845-10.443 1.398-1.397 1.357-1.598-.417-2.061-1.081-.283-1.739-.147-1.461.302.677 1.096-.49 3.997-1.609 3.997-1.256 0-1.119-7.742.151-8.527.574-.355 1.811-.052 2.75.674 1.535 1.186 1.531 1.112-.044-.743-.963-1.134-1.75-2.447-1.75-2.918 0-.472-.892-1.807-1.983-2.968-1.243-1.323-2.7-5.606-3.905-11.485-1.775-8.651-2.22-9.624-5.768-12.604-2.614-2.197-4.079-2.862-4.579-2.079-.478.748-.74.559-.75-.541-.021-2.321-1.993-3.37-2.103-1.118m52.807 7.964c.426 2.629.268 3.455-.563 2.941-.636-.393-1.718-.353-2.406.089-.805.516-.004.982 2.25 1.309l3.5.506v7.166c0 6.022.354 7.544 2.215 9.528l2.215 2.361-2.215 2.73c-2.058 2.538-2.481 2.656-5.978 1.672-4.251-1.195-5.27-.853-6.023 2.027-.629 2.408.812 2.685 2.09.402.616-1.101 1.584-1.398 3.049-.933 2.653.842 2.685 2.068.183 6.976l-1.963 3.851 2.354-2.211c2.158-2.028 2.965-2.153 9.713-1.499 4.048.392 7.74 1.211 8.204 1.821.484.635.536.254.122-.891-.397-1.1-.829-3.889-.96-6.198-.202-3.574.077-4.26 1.878-4.614 2.03-.399 2.025-.421-.134-.552-3.132-.189-2.817-1.765 1.25-6.268 1.925-2.13 3.486-4.435 3.47-5.121-.017-.686-.525-.397-1.128.642-2.907 5.006-5.181 6.611-9.367 6.611-6.434 0-7.984-2.38-7.633-11.718.131-3.488.634-4.479 2.908-5.723l2.75-1.505-3 .5c-3.947.658-5.383-.44-5.681-4.343-.134-1.766-.57-3.211-.969-3.211-.398 0-.457 1.645-.131 3.655m-92.282.475c-2.448 2.609-2.566 2.937-.71 1.977 1.225-.634 2.703-2.043 3.285-3.13 1.48-2.765.828-2.473-2.575 1.153m41.642-.547c.048 1.165.285 1.402.604.605.289-.722.253-1.585-.079-1.917-.332-.332-.568.258-.525 1.312m-15.391 1.058c.836.341.688 1.01-.5 2.263-.929.978-2.02 1.602-2.427 1.385-.406-.216-.476.291-.155 1.127.321.837.879 1.482 1.239 1.434.36-.048 1.33-.027 2.155.047 1.333.119 1.333.241 0 1.103-1.237.799-1.14.972.55.985 1.128.008 2.59-.525 3.25-1.185 1.738-1.738 1.487-6.476-.382-7.193-1.861-.714-5.486-.681-3.73.034m-24.726 4.075c1.391 2.875.245 10.284-1.59 10.284-.861 0-1.409-1.211-1.472-3.25-.093-3.053-.146-3.098-.862-.75-.647 2.119-.874 2.239-1.493.788-.401-.941-1.627-1.997-2.724-2.345-1.952-.619-1.948-.666.201-2.171 1.678-1.175 2.373-1.251 2.948-.321.548.887.925.766 1.391-.449.351-.916.639-1.86.639-2.097 0-.449-7.078 2.34-7.819 3.081-.232.232 1.207 1.958 3.199 3.836 2.634 2.484 3.62 4.251 3.62 6.487 0 1.69.369 3.301.819 3.579.451.279.624-.82.387-2.441-.339-2.305-.052-2.947 1.318-2.947 1.533 0 1.678.716 1.164 5.75-.375 3.673-.269 5.028.292 3.75.484-1.1.911-3.238.95-4.75.085-3.334.686-3.41 4.006-.509 1.41 1.232 1.045.59-.811-1.427-3.083-3.35-3.318-4.041-2.723-8.012.483-3.22.242-4.858-.93-6.324-1.54-1.925-1.554-1.919-.51.238m41.324 2.784c.008 2.75.202 3.756.432 2.236.229-1.52.223-3.77-.014-5-.237-1.23-.425.014-.418 2.764m-1.207 14.083c.048 1.165.285 1.402.604.605.289-.722.253-1.585-.079-1.917-.332-.332-.568.258-.525 1.312m13.69.987c.292 1.529.857 2.204 1.394 1.667.975-.975.105-4.237-1.131-4.237-.415 0-.534 1.157-.263 2.57M166 176.893c0 .491.675 1.152 1.5 1.469.914.35 1.5.001 1.5-.893 0-.808-.675-1.469-1.5-1.469s-1.5.402-1.5.893m-62.748 3.607c.011 2.2.216 2.982.455 1.738.239-1.244.23-3.044-.02-4s-.446.062-.435 2.262m55.714 1.54c-2.32 2.772-4.05 5.203-3.843 5.401.208.199 3.414.684 7.127 1.077l6.75.715-.015-3.867c-.012-2.958-.257-3.514-1.045-2.366-.84 1.224-.975 1.115-.735-.596.291-2.067-1.707-5.404-3.234-5.404-.432 0-2.684 2.268-5.005 5.04M106 187.639c0 .586 1.35 2.477 3 4.204 1.65 1.726 3 3.545 3 4.041 0 1.214 2.81 2.232 3.423 1.24.268-.433-1.743-2.984-4.468-5.668-2.725-2.685-4.955-4.402-4.955-3.817m48.657 8.416c-1.461 1.15-2.657 2.557-2.657 3.128 0 .571.925-.024 2.056-1.322 1.686-1.936 1.892-2.001 1.14-.361-1.13 2.463.63 6.891 2.883 7.254 1.852.299 4.272-3.714 3.77-6.253-.192-.969-1.291-2.386-2.442-3.149-1.846-1.224-2.405-1.141-4.75.703m18.676.401c0 .801.383 1.22.85.931.467-.289.591-.944.274-1.456-.808-1.308-1.124-1.161-1.124.525" fill="#fff" fill-rule="evenodd"/><path fill-opacity=".796" d="M140.63 46.25c-.331 1.237-.609 3.23-.616 4.429-.008 1.198-.677 2.842-1.488 3.652-1.299 1.3-1.299 1.542 0 2.04.886.341 1.474-.019 1.474-.902 0-.822.991-1.52 2.25-1.585 1.843-.095 1.915-.202.4-.593-1.582-.407-1.754-1.114-1.188-4.884.697-4.649.189-5.966-.832-2.157M20.495 59.992c.357.577-.472 1.008-1.936 1.008-1.532 0-2.559.564-2.559 1.406 0 .846.698 1.226 1.75.952.962-.249 2.65.235 3.75 1.076 1.902 1.456 1.847 1.502-1.129.948-3.938-.734-5.196 1.035-2.719 3.827 1.157 1.305 1.434 2.229.74 2.473-.61.215-1.935.994-2.945 1.733-1.739 1.271-1.746 1.48-.141 3.929 2.296 3.504 4.943 4.756 8.538 4.037 2.035-.407 2.835-1.055 2.471-2.003-.37-.965-.039-1.209 1.065-.786 1.013.389 1.856-.045 2.291-1.178.403-1.05.199-1.957-.491-2.187-2.036-.679-1.284-3.073 1.07-3.407 1.893-.269 2.25-.937 2.25-4.211 0-4.728-2.357-6.804-5.497-4.843C25.371 63.785 25 63.767 25 62.669c0-.741-1.154-1.874-2.564-2.516-1.483-.676-2.301-.743-1.941-.161m211.085-.124c-3.469.751-7.24 6.266-4.894 7.157 1.08.41.927 1.014-.702 2.761-1.836 1.972-2.063 3.352-1.908 11.649l.176 9.413 3.427-1.635c3.069-1.463 3.381-1.98 2.982-4.942-.245-1.819-1.053-4.039-1.796-4.933-1.201-1.447-1.075-1.549 1.143-.919 1.371.389 3.474 1.188 4.675 1.777 2.999 1.47 5.317.35 5.317-2.571 0-1.969.396-2.334 2.059-1.899 1.513.395 2.207-.027 2.617-1.594.306-1.173.955-2.132 1.441-2.132.485 0 .883-.706.883-1.568 0-1.315-.463-1.239-2.863.47-3.096 2.205-4.892 1.736-2.878-.752.868-1.073.886-1.321.06-.826-.649.39-1.465.248-1.813-.315-.348-.563.183-1.345 1.181-1.739 1.502-.593 1.299-.843-1.187-1.459-2.604-.645-2.503-.689.767-.337 2.896.312 4.226-.087 5.75-1.723 4.671-5.013-.529-6.707-6.146-2.001-1.805 1.513-2.926 2.168-2.49 1.456.759-1.242-.945-4.334-2.253-4.088-.346.065-1.942.403-3.548.75m-88.872 4.383c.436 2.281.064 2.885-2.333 3.796-2.429.924-3.09.788-4.474-.92-1.214-1.5-1.91-1.718-2.762-.866-2.917 2.917.097 5.36 4.533 3.674 3.873-1.473 4.776.071 4.647 7.952-.187 11.505-3.091 13.792-10.034 7.903-2.082-1.766-3.939-3.308-4.127-3.426-.408-.256 1.719-7.136 2.973-9.614.654-1.292.483-1.75-.654-1.75-.847 0-1.799-.675-2.115-1.5-.317-.825-1.033-1.5-1.591-1.5-.683 0-.686.41-.009 1.25.554.688 1.314 2.685 1.689 4.44.599 2.806.228 3.618-3.093 6.75-2.469 2.328-4.74 3.56-6.566 3.56-1.536 0-2.792.36-2.792.799 0 1.131 7.363.157 8.151-1.078.407-.636 1.912-.211 4 1.128 1.842 1.182 4.584 2.937 6.093 3.9 3.268 2.086 3.415 3.657.752 8.025-1.098 1.801-1.994 3.601-1.991 4 .009 1.254 4.921-5.209 4.959-6.524.044-1.528 1.463-1.591 4.352-.194 2.134 1.033 2.131 1.011-.101-.938l-2.285-1.995 1.958-3.652c1.382-2.579 1.786-4.708 1.374-7.246-.518-3.187-.198-3.924 2.827-6.519 1.876-1.609 2.487-2.457 1.357-1.885-3.342 1.692-5.158-.096-3.787-3.728.877-2.325.839-3.397-.169-4.776-1.163-1.591-1.246-1.492-.782.934m87.802.765c.346.559 1.047.758 1.559.441 1.387-.857 1.129-1.457-.628-1.457-.857 0-1.276.457-.931 1.016M8 66.944C8 68.475 12.751 72 14.814 72c2.401 0 2.898-1.426.936-2.683C13.555 67.911 8 66.21 8 66.944M227.5 73c-.721 1.166.211 3 1.524 3 .498 0 1.387-.9 1.976-2 .903-1.686.76-2-.906-2-1.087 0-2.254.45-2.594 1m-207 4c.34.55.816 1 1.059 1s.441-.45.441-1-.477-1-1.059-1-.781.45-.441 1M132 109.296c0 .254 2.117 2.197 4.703 4.317 2.587 2.12 4.381 3.332 3.987 2.694-.841-1.36-8.69-7.693-8.69-7.011m1.564 9.411c-.542 1.425-.428 1.54.56.56.684-.679.991-1.486.683-1.793-.308-.308-.867.247-1.243 1.233m7.308 4.043c-1.243 1.586-1.208 1.621.378.378.963-.755 1.75-1.543 1.75-1.75 0-.823-.821-.294-2.128 1.372M136.5 136c-.34.55-.141 1 .441 1s1.059-.45 1.059-1-.198-1-.441-1-.719.45-1.059 1m-34.421 11.583c.048 1.165.285 1.402.604.605.289-.722.253-1.585-.079-1.917-.332-.332-.568.258-.525 1.312m.234 3.917c1.382 5.139 1.605 8.382.894 13l-.77 5-3.877-.128c-3.053-.101-3.499.083-2.1.866.977.546 3.576.752 5.776.457l4-.536-.68 3.67c-1.175 6.336-1.639 15.002-.831 15.5.426.262.843-1.731.926-4.43.083-2.699.691-7.155 1.35-9.903 1.128-4.704 1.385-4.996 4.399-4.996 1.76 0 3.796.563 4.525 1.25 1.069 1.009 1.238.961.873-.25-.257-.854-1.923-1.643-3.866-1.831-1.878-.183-3.749-.858-4.158-1.5-.543-.854-.748-.819-.759.131-.011.92-.503 1.026-1.687.364-1.313-.735-1.701-2.571-1.808-8.558-.086-4.804-.618-8.081-1.441-8.864-1.055-1.006-1.201-.861-.766.758m8.75 7.566c-1.34 2.692-2.14 5.19-1.778 5.553.363.362 1.131-.642 1.708-2.23.576-1.589 1.565-3.901 2.196-5.137.631-1.237.959-2.436.729-2.664-.23-.229-1.515 1.787-2.855 4.478m-22.396-3.399c-2.381 2.381 1.237 5.487 3.858 3.312 1.14-.946 1.228-1.572.365-2.612-1.217-1.465-3.139-1.784-4.223-.7m68.792 11.4c-.363.586-.445 1.281-.183 1.543s.743-.218 1.069-1.067c.676-1.762.1-2.072-.886-.476m4.071 9.837c-.314.991-1.912 2.997-3.551 4.457-1.638 1.46-2.979 3.132-2.979 3.715 0 .583 1.688-.958 3.75-3.425 2.063-2.467 4.425-4.648 5.25-4.848 1.24-.299 1.206-.478-.199-1.032-1.146-.451-1.885-.082-2.271 1.133m-41.53-.526c0 .207.787.995 1.75 1.75 1.586 1.243 1.621 1.208.378-.378-1.307-1.666-2.128-2.195-2.128-1.372m48 3.563c0 .518.375 1.173.833 1.456.459.283.834-.14.834-.941 0-.801-.375-1.456-.834-1.456-.458 0-.833.423-.833.941m-14 8.618c0 .857.457 1.276 1.016.931.559-.346.758-1.047.441-1.559-.857-1.387-1.457-1.129-1.457.628m15 .334c0 .491.652 1.143 1.449 1.449.969.372 1.265.076.893-.893-.607-1.582-2.342-1.994-2.342-.556m-3.187.79c.721.289 1.584.253 1.916-.079.332-.332-.258-.568-1.312-.525-1.165.048-1.402.285-.604.604m-47.441 1.745c-.62.674-1.442 2.316-1.827 3.649-.54 1.868-.212 1.653 1.431-.94 2.19-3.454 2.399-4.887.396-2.709m-8.808 1.865c.376.986.935 1.541 1.243 1.233.308-.307.001-1.114-.683-1.793-.988-.98-1.102-.865-.56.56m46.686 3.37c-1.692.682-1.582 3.817.186 5.284 1.978 1.641 5.487-.316 5.289-2.949-.083-1.099-.468-1.998-.856-1.998-.388 0-1.305-.189-2.037-.421-.733-.231-1.894-.194-2.582.084m-44.152 1.917c3.257 3.914 3.163 4.386-1.281 6.448-3.458 1.605-3.72 1.883-1.317 1.399 8.81-1.774 10.923-1.611 13.75 1.058 1.833 1.73 2.75 2.121 2.75 1.17 0-1.786-4.27-4.655-6.93-4.655-2.144 0-4.556-3.404-3.557-5.021.333-.538.165-.979-.372-.979-.538 0-1.802-.301-2.809-.67-1.702-.622-1.718-.533-.234 1.25" fill="#fff" fill-rule="evenodd"/></svg>